<?xml version="1.0" encoding="utf-8" ?>
<svg xmlns="http://www.w3.org/2000/svg" xmlns:xlink="http://www.w3.org/1999/xlink" width="232" height="232">
	<path transform="scale(0.453448 0.453448)" d="M264.062 487.701L220.578 487.73C203.602 487.819 193.268 476.372 196.761 459.048C195.072 458.328 193.312 458.018 191.625 457.17C181.776 452.219 179.266 443.529 179.253 433.309L179.234 394.049C179.227 379.819 179.014 374.658 166.328 367.877L157.25 362.781C115.377 337.206 84.6383 293.159 74.4866 245.322C53.1611 144.831 119.712 45.7891 221.095 25.9722C230.328 24.1677 239.532 23.5041 248.889 22.8122C345.362 18.9533 428.109 89.2978 440.394 184.002L441.438 192.192C446.145 251.659 421.319 310.083 375.762 348.52C368.623 354.543 360.917 360.335 352.817 364.993L345.19 369.05C330.489 376.359 333.255 384.897 333.256 398.772L333.142 438.393C332.598 448.328 325.259 456.823 315.703 459.284C314.603 468.177 318.44 472.973 309.432 481.886C302.323 488.919 293.073 487.711 283.875 487.714L264.062 487.701ZM249.134 58.2865C240.86 58.9005 232.728 59.6285 224.608 61.382C161.22 75.0703 111.136 131.266 106.457 196.177C106.161 200.287 106.313 204.513 106.314 208.638L106.457 219.269C109.352 265.632 139.025 310.379 178.442 334.039C183.048 336.803 187.993 339.003 192.53 341.864C207.209 351.12 215.487 368.064 215.464 385.155L215.647 395.104C218.298 394.882 237.829 395.065 238.51 394.584L238.578 299.893L197.298 299.932C163.898 299.907 141.498 267.425 153.236 235.795C155.807 228.864 160.057 222.418 163.608 215.943L211.168 130.917C222.656 110.262 233.218 84.0113 261.804 88.7901C283.744 92.9507 290.658 112.483 300.314 129.868L347.6 213.647C351.768 221.227 356.7 228.599 359.618 236.782C370.224 266.531 349.773 299.691 317.581 299.894L274.647 299.919L274.633 394.821L297.132 394.818C296.255 375.34 299.934 356.38 316.949 344.079C320.664 341.392 324.783 339.335 328.783 337.119C406.98 293.786 430.173 192.944 378.161 120.269C349.025 79.557 298.968 55.9071 249.134 58.2865Z"/>
</svg>
